<svg width="104" height="112" viewBox="0 0 104 112" fill="none" xmlns="http://www.w3.org/2000/svg">
<path d="M96.704 90.6436C95.9193 96.4708 91.9983 101.513 86.5081 103.754C83.8184 104.874 80.9059 105.21 77.9923 104.874C75.1918 104.538 72.3901 103.641 69.4776 101.962C65.4436 99.7191 61.4096 96.247 56.704 91.0925C64.0993 82.017 68.5799 73.7251 70.2612 66.332C71.0458 62.8576 71.1577 59.7202 70.8219 56.8066C70.3742 54.0061 69.3657 51.4283 67.7964 49.1874C64.3232 44.146 58.4971 41.2324 51.9983 41.2324C45.4996 41.2324 39.6735 44.2579 36.2002 49.1874C34.631 51.4283 33.6236 54.0061 33.1747 56.8066C32.727 59.7202 32.8389 62.9696 33.7355 66.332C35.4156 73.7251 40.0093 82.129 47.2927 91.2033C42.699 96.3589 38.5531 99.8321 34.519 102.073C31.6066 103.754 28.8049 104.651 26.0044 104.985C22.9788 105.322 20.0653 104.874 17.4886 103.866C11.9983 101.625 8.07734 96.5816 7.29269 90.7556C6.9569 87.955 7.18076 85.1545 8.3012 82.017C8.637 80.8955 9.19778 79.7773 9.75744 78.4319C10.5421 76.6398 11.4387 74.7336 12.3341 72.8286L12.4472 72.6058C20.1772 55.91 28.4691 38.8796 37.0968 22.298L37.4326 21.6241C38.3292 19.9452 39.2247 18.1531 40.1223 16.4719C41.0178 14.6788 42.0263 12.9975 43.2587 11.5402C45.6115 8.85046 48.7489 7.39423 52.2222 7.39423C55.6954 7.39423 58.8329 8.85046 61.1857 11.5402C62.4181 12.9975 63.4266 14.6788 64.3232 16.4719C65.2197 18.1531 66.1152 19.9452 67.0118 21.6241L67.3487 22.298C75.8633 38.9915 84.1553 56.022 91.8864 72.7177V72.8286C92.783 74.6217 93.5665 76.6398 94.4631 78.4319C95.0239 79.7773 95.5835 80.8955 95.9193 82.017C96.8159 84.9295 97.1517 87.7323 96.704 90.6436ZM51.9983 85.3772C45.9484 77.7592 42.0263 70.5877 40.682 64.5389C40.1223 61.9611 40.0093 59.7202 40.3462 57.7032C40.5701 55.91 41.2428 54.3407 42.1382 52.9953C44.2672 49.9732 47.8524 48.0647 51.9983 48.0647C56.1443 48.0647 59.8414 49.859 61.8584 52.9953C62.7539 54.3407 63.4266 55.91 63.6505 57.7032C63.9862 59.7202 63.8743 62.073 63.3147 64.5389C61.9704 70.4769 58.0483 77.6472 51.9983 85.3772ZM102.53 79.5512C101.97 78.2069 101.41 76.7506 100.85 75.5183C99.9534 73.5024 99.0568 71.5962 98.2721 69.803L98.1602 69.6922C90.4302 52.8845 82.1383 35.8541 73.3986 19.0497L73.0628 18.3759C72.1662 16.6947 71.2697 14.9015 70.3742 13.1095C69.2526 11.0913 68.1322 8.96463 66.3402 6.9465C62.7539 2.46474 57.6005 0 52.1103 0C46.5081 0 41.4667 2.46474 37.7684 6.72375C36.0883 8.73965 34.8559 10.8686 33.7355 12.8867C32.8389 14.6788 31.9424 16.4719 31.0458 18.1531L30.71 18.8236C22.0834 35.6302 13.6795 52.6618 5.94839 69.4684L5.83646 69.6922C5.05182 71.4842 4.15524 73.3882 3.25867 75.4063C2.69901 76.6398 2.13823 77.9841 1.57857 79.4404C0.121212 83.5852 -0.326516 87.5073 0.233144 91.5402C1.46663 99.9441 7.06883 107.004 14.8 110.14C17.7124 111.373 20.738 111.933 23.8754 111.933C24.772 111.933 25.8924 111.821 26.789 111.708C30.4861 111.259 34.2952 110.029 37.9923 107.899C42.5871 105.322 46.9569 101.625 51.8864 96.247C56.8159 101.625 61.2976 105.322 65.7794 107.899C69.4776 110.029 73.2867 111.259 76.9838 111.708C77.8804 111.821 79.0008 111.933 79.8974 111.933C83.0348 111.933 86.1712 111.373 88.9728 110.14C96.8159 107.004 102.306 99.8321 103.539 91.5402C104.435 87.6181 103.986 83.6983 102.53 79.5512Z" fill="#7007AC"/>
</svg>
