<svg width="114" height="114" viewBox="0 0 114 114" fill="none" xmlns="http://www.w3.org/2000/svg">
<path d="M24.9659 0H89.0341C102.822 0 114 11.1776 114 24.9659V89.0341C114 102.822 102.822 114 89.0341 114H24.9659C11.1776 114 0 102.822 0 89.0341V24.9659C0 11.1776 11.1776 0 24.9659 0Z" fill="#7006AC"/>
<path d="M36.5342 82.7436L36.5449 82.747L32.6473 89.4979C31.2246 91.9622 28.0733 92.8065 25.6091 91.3837C23.1449 89.9612 22.3006 86.8099 23.7232 84.3457L26.5946 79.3725L26.8701 78.8952C27.3622 78.1877 28.5766 76.9672 31.0058 77.1966C31.0058 77.1966 36.7222 77.817 37.1358 80.788C37.1359 80.788 37.1923 81.7658 36.5342 82.7436ZM91.8168 65.5006H79.6624C78.8347 65.4453 78.4731 65.1497 78.3313 64.9778L78.3223 64.9621L65.3113 42.4266L65.2945 42.4379L64.5141 41.319C63.2354 39.3635 61.2047 44.3652 61.2047 44.3652C58.7801 49.9385 61.5487 56.2752 62.5141 58.1903L80.5855 89.4909C82.0081 91.9552 85.1593 92.7995 87.6236 91.3767C90.0877 89.9542 90.9321 86.8029 89.5094 84.3387L84.9904 76.5118C84.903 76.3222 84.7505 75.8072 85.6773 75.8051H91.8168C94.6623 75.8051 96.9691 73.4984 96.9691 70.6529C96.9691 67.8074 94.6623 65.5006 91.8168 65.5006ZM68.209 72.505C68.209 72.505 68.8577 75.805 66.3475 75.805H63.8372V75.8051H21.4159C18.5704 75.8051 16.2637 73.4984 16.2637 70.6529C16.2637 67.8074 18.5704 65.5006 21.4159 65.5006H32.9673C34.8323 65.3926 35.2744 64.316 35.2744 64.316L35.2846 64.3212L50.363 38.2045L50.3585 38.2036C50.6335 37.699 50.4046 37.2223 50.3647 37.1469L45.3851 28.522C43.9623 26.0577 44.8067 22.9066 47.2709 21.4839C49.7352 20.0611 52.8862 20.9054 54.309 23.3697L56.6185 27.3699L58.9239 23.3768C60.3466 20.9125 63.4977 20.0682 65.9619 21.491C68.4262 22.9138 69.2706 26.0649 67.8478 28.5291L46.8657 64.871C46.7739 65.0922 46.7458 65.4395 47.4284 65.5006H59.9703L59.973 65.6228C59.973 65.6228 67.2218 65.7357 68.209 72.505Z" fill="#9008DE"/>
</svg>
