<svg width="37" height="15" viewBox="0 0 37 15" fill="none" xmlns="http://www.w3.org/2000/svg">
<path d="M16.625 7.5H35.375M35.375 7.5L29.75 1.875M35.375 7.5L29.75 13.125M9.125 7.5C9.125 8.49456 8.72991 9.44839 8.02665 10.1516C7.32339 10.8549 6.36956 11.25 5.375 11.25C4.38044 11.25 3.42661 10.8549 2.72335 10.1516C2.02009 9.44839 1.625 8.49456 1.625 7.5C1.625 6.50544 2.02009 5.55161 2.72335 4.84835C3.42661 4.14509 4.38044 3.75 5.375 3.75C6.36956 3.75 7.32339 4.14509 8.02665 4.84835C8.72991 5.55161 9.125 6.50544 9.125 7.5Z" stroke="white" stroke-width="2" stroke-linecap="round" stroke-linejoin="round"/>
</svg>
