<svg width="29" height="28" viewBox="0 0 29 28" fill="none" xmlns="http://www.w3.org/2000/svg">
<path d="M22.2668 22.1666C23.5736 22.1666 24.227 22.1666 24.7262 21.9123C25.1652 21.6886 25.5222 21.3316 25.7459 20.8926C26.0002 20.3934 26.0002 19.74 26.0002 18.4333V9.56659C26.0002 8.2598 26.0002 7.6064 25.7459 7.10728C25.5222 6.66823 25.1652 6.31128 24.7262 6.08757C24.227 5.83325 23.5736 5.83325 22.2668 5.83325L6.40017 5.83325C5.09338 5.83325 4.43999 5.83325 3.94086 6.08757C3.50182 6.31127 3.14486 6.66823 2.92116 7.10727C2.66684 7.6064 2.66684 8.2598 2.66684 9.56659L2.66684 18.4333C2.66684 19.74 2.66684 20.3934 2.92116 20.8926C3.14486 21.3316 3.50182 21.6886 3.94086 21.9123C4.43999 22.1666 5.09338 22.1666 6.40017 22.1666L22.2668 22.1666Z" fill="#F9F0FE"/>
<path d="M26.0002 11.6666H2.66684M13.1668 16.3333H7.33351M2.66684 9.56659L2.66684 18.4333C2.66684 19.74 2.66684 20.3934 2.92116 20.8926C3.14486 21.3316 3.50182 21.6886 3.94086 21.9123C4.43999 22.1666 5.09338 22.1666 6.40017 22.1666L22.2668 22.1666C23.5736 22.1666 24.227 22.1666 24.7262 21.9123C25.1652 21.6886 25.5222 21.3316 25.7459 20.8926C26.0002 20.3934 26.0002 19.74 26.0002 18.4333V9.56659C26.0002 8.2598 26.0002 7.6064 25.7459 7.10728C25.5222 6.66823 25.1652 6.31128 24.7262 6.08757C24.227 5.83325 23.5736 5.83325 22.2668 5.83325L6.40017 5.83325C5.09338 5.83325 4.43999 5.83325 3.94086 6.08757C3.50182 6.31127 3.14486 6.66823 2.92116 7.10727C2.66684 7.6064 2.66684 8.2598 2.66684 9.56659Z" stroke="#8407CC" stroke-width="2.5" stroke-linecap="round" stroke-linejoin="round"/>
</svg>
