<svg width="28" height="28" viewBox="0 0 28 28" fill="none" xmlns="http://www.w3.org/2000/svg">
<path d="M2.82348 14.832C2.66459 14.5804 2.58515 14.4546 2.54068 14.2606C2.50727 14.1148 2.50727 13.885 2.54068 13.7393C2.58515 13.5452 2.66459 13.4195 2.82348 13.1679C4.13645 11.0889 8.04463 5.83325 14.0005 5.83325C19.9563 5.83325 23.8645 11.0889 25.1775 13.1679C25.3364 13.4195 25.4158 13.5452 25.4603 13.7393C25.4937 13.885 25.4937 14.1148 25.4603 14.2606C25.4158 14.4546 25.3364 14.5804 25.1775 14.832C23.8645 16.9109 19.9563 22.1666 14.0005 22.1666C8.04463 22.1666 4.13645 16.9109 2.82348 14.832Z" fill="#8407CC"/>
<path d="M14.0005 17.4999C15.9335 17.4999 17.5005 15.9329 17.5005 13.9999C17.5005 12.0669 15.9335 10.4999 14.0005 10.4999C12.0675 10.4999 10.5005 12.0669 10.5005 13.9999C10.5005 15.9329 12.0675 17.4999 14.0005 17.4999Z" fill="#8407CC"/>
<path d="M2.82348 14.832C2.66459 14.5804 2.58515 14.4546 2.54068 14.2606C2.50727 14.1148 2.50727 13.885 2.54068 13.7393C2.58515 13.5452 2.66459 13.4195 2.82348 13.1679C4.13645 11.0889 8.04463 5.83325 14.0005 5.83325C19.9563 5.83325 23.8645 11.0889 25.1775 13.1679C25.3364 13.4195 25.4158 13.5452 25.4603 13.7393C25.4937 13.885 25.4937 14.1148 25.4603 14.2606C25.4158 14.4546 25.3364 14.5804 25.1775 14.832C23.8645 16.9109 19.9563 22.1666 14.0005 22.1666C8.04463 22.1666 4.13645 16.9109 2.82348 14.832Z" stroke="#E7FDF3" stroke-width="1.5" stroke-linecap="round" stroke-linejoin="round"/>
<path d="M14.0005 17.4999C15.9335 17.4999 17.5005 15.9329 17.5005 13.9999C17.5005 12.0669 15.9335 10.4999 14.0005 10.4999C12.0675 10.4999 10.5005 12.0669 10.5005 13.9999C10.5005 15.9329 12.0675 17.4999 14.0005 17.4999Z" stroke="#E7FDF3" stroke-width="1.5" stroke-linecap="round" stroke-linejoin="round"/>
</svg>
