<svg width="171" height="47" viewBox="0 0 171 47" fill="none" xmlns="http://www.w3.org/2000/svg">
<path d="M113.774 0V33.4663C117.902 33.6583 122.019 33.8905 126.125 34.1644V41.2596C119.635 40.827 113.117 40.4968 106.573 40.2716V0H113.774ZM171 0.00396475L161.623 21.7444L170.998 45.9375L170.987 45.942C168.256 45.5524 165.522 45.1846 162.779 44.832L157.515 31.2535L152.2 43.5715C149.681 43.2934 147.159 43.0303 144.631 42.7837L153.773 21.5991L145.401 0.00396475H153.191L157.879 12.0888L163.091 0.00396475H171ZM81.8573 39.9199L81.8571 0.00383646H101.96V7.16286H89.0585V16.4413H98.8199V23.5365H89.0585V39.9183L81.8573 39.9199ZM54.9672 7.16346L54.967 0.00346327H77.2407V7.16296H69.7043V40.1141C67.3007 40.177 64.8995 40.2516 62.5033 40.342V7.16346H54.9672ZM30.3486 42.4047V0.00466436H50.3508V7.16369H37.5489V16.8612C40.49 16.8235 44.6718 16.7809 47.2734 16.7872V23.883C44.0168 23.8425 40.3407 23.9276 37.5489 23.9555V34.6975C41.8038 34.3629 46.0715 34.0701 50.3508 33.8229V40.9188C43.6531 41.3047 36.9854 41.8017 30.3486 42.4047ZM16.222 26.002L16.2215 0.00349835H23.423V43.0736C20.7904 43.3444 18.1628 43.6325 15.5398 43.9368L7.20101 19.9804V44.9629C4.79593 45.2761 2.39575 45.6027 0 45.9437V0.00396475H6.84373L16.222 26.002ZM132.066 41.6876V41.6877V0.00401119H139.267V42.2823C136.87 42.069 134.47 41.8716 132.066 41.6876Z" fill="#7006AC"/>
</svg>
