<svg width="128" height="128" viewBox="0 0 128 128" fill="none" xmlns="http://www.w3.org/2000/svg">
<g clip-path="url(#clip0_1_864)">
<path d="M64 0C28.6535 0 0 28.6535 0 64C0 99.3465 28.6535 128 64 128C99.3465 128 128 99.3465 128 64C128 28.6535 99.3465 0 64 0Z" fill="#7006AC"/>
<path d="M95.1413 36.8154L83.7103 94.4489C83.7103 94.4489 82.1118 98.4459 77.7153 96.5274L51.3363 76.3034L41.7443 71.6674L25.5973 66.2314C25.5973 66.2314 23.1193 65.3524 22.8793 63.4339C22.6398 61.5154 25.6773 60.4764 25.6773 60.4764L89.8653 35.2964C89.8653 35.2964 95.1413 32.9784 95.1413 36.8154Z" fill="#420466"/>
<path d="M49.3089 93.8017C49.3089 93.8017 48.5389 93.7297 47.5794 90.6917C46.6204 87.6542 41.7444 71.6672 41.7444 71.6672L80.5129 47.0472C80.5129 47.0472 82.7514 45.6882 82.6714 47.0472C82.6714 47.0472 83.0709 47.2867 81.8719 48.4057C80.6729 49.5252 51.4164 75.8237 51.4164 75.8237" fill="#420466"/>
<path d="M61.4507 84.0577L51.0167 93.5707C51.0167 93.5707 50.2012 94.1897 49.3087 93.8017L51.3067 76.1312" fill="#420466"/>
</g>
<defs>
<clipPath id="clip0_1_864">
<rect width="128" height="128" fill="white"/>
</clipPath>
</defs>
</svg>
