<svg width="28" height="29" viewBox="0 0 28 29" fill="none" xmlns="http://www.w3.org/2000/svg">
<path d="M19.8333 3.10986H8.16665C4.94499 3.10986 2.33331 5.72154 2.33331 8.9432V20.6099C2.33331 23.8315 4.94499 26.4432 8.16665 26.4432H19.8333C23.055 26.4432 25.6666 23.8315 25.6666 20.6099V8.9432C25.6666 5.72154 23.055 3.10986 19.8333 3.10986Z" stroke="#8407CC" stroke-width="1.2" stroke-linecap="round" stroke-linejoin="round"/>
<path d="M18.6667 14.0417C18.8106 15.0127 18.6448 16.0043 18.1927 16.8756C17.7406 17.7468 17.0253 18.4534 16.1485 18.8947C15.2718 19.336 14.2782 19.4896 13.3091 19.3336C12.34 19.1777 11.4447 18.7201 10.7506 18.0261C10.0566 17.332 9.599 16.4367 9.44306 15.4676C9.28712 14.4985 9.44073 13.5049 9.88203 12.6282C10.3233 11.7514 11.0299 11.0361 11.9011 10.584C12.7724 10.1319 13.764 9.96607 14.735 10.1101C15.7254 10.2569 16.6423 10.7184 17.3503 11.4264C18.0583 12.1344 18.5198 13.0513 18.6667 14.0417Z" stroke="#8407CC" stroke-width="1.2" stroke-linecap="round" stroke-linejoin="round"/>
<path d="M20.4167 8.35986H20.4284" stroke="#8407CC" stroke-width="1.2" stroke-linecap="round" stroke-linejoin="round"/>
</svg>
