<svg width="28" height="29" viewBox="0 0 28 29" fill="none" xmlns="http://www.w3.org/2000/svg">
<path d="M18.6667 9.83325C20.5232 9.83325 22.3037 10.5708 23.6164 11.8835C24.9292 13.1963 25.6667 14.9767 25.6667 16.8333V24.9999H21V16.8333C21 16.2144 20.7542 15.6209 20.3166 15.1833C19.879 14.7458 19.2855 14.4999 18.6667 14.4999C18.0478 14.4999 17.4544 14.7458 17.0168 15.1833C16.5792 15.6209 16.3334 16.2144 16.3334 16.8333V24.9999H11.6667V16.8333C11.6667 14.9767 12.4042 13.1963 13.7169 11.8835C15.0297 10.5708 16.8102 9.83325 18.6667 9.83325Z" stroke="#8407CC" stroke-width="1.2" stroke-linecap="round" stroke-linejoin="round"/>
<path d="M6.99998 11H2.33331V25H6.99998V11Z" stroke="#8407CC" stroke-width="1.2" stroke-linecap="round" stroke-linejoin="round"/>
<path d="M4.66665 7.49992C5.95531 7.49992 6.99998 6.45525 6.99998 5.16659C6.99998 3.87792 5.95531 2.83325 4.66665 2.83325C3.37798 2.83325 2.33331 3.87792 2.33331 5.16659C2.33331 6.45525 3.37798 7.49992 4.66665 7.49992Z" stroke="#8407CC" stroke-width="1.2" stroke-linecap="round" stroke-linejoin="round"/>
</svg>
