<svg width="28" height="28" viewBox="0 0 28 28" fill="none" xmlns="http://www.w3.org/2000/svg">
<path d="M17.5 8.16667C18.1188 8.16667 18.7123 8.4125 19.1499 8.85008C19.5875 9.28767 19.8333 9.88116 19.8333 10.5M17.5 3.5C19.3565 3.5 21.137 4.2375 22.4497 5.55025C23.7625 6.86301 24.5 8.64348 24.5 10.5M5.83333 4.66667H10.5L12.8333 10.5L9.91667 12.25C11.1661 14.7835 13.2165 16.8339 15.75 18.0833L17.5 15.1667L23.3333 17.5V22.1667C23.3333 22.7855 23.0875 23.379 22.6499 23.8166C22.2123 24.2542 21.6188 24.5 21 24.5C16.4491 24.2234 12.1568 22.2909 8.93297 19.067C5.70909 15.8432 3.77656 11.5509 3.5 7C3.5 6.38116 3.74583 5.78767 4.18342 5.35008C4.621 4.9125 5.21449 4.66667 5.83333 4.66667Z" stroke="#8407CC" stroke-width="2" stroke-linecap="round" stroke-linejoin="round"/>
</svg>
