<svg width="256" height="80" viewBox="0 0 256 80" fill="none" xmlns="http://www.w3.org/2000/svg">
<g clip-path="url(#clip0_1_863)">
<path d="M39.8276 0C17.8319 0 0 17.8314 0 39.8271C0 61.8237 17.8319 79.6537 39.8276 79.6537C61.8256 79.6537 79.6556 61.8237 79.6556 39.8271C79.6556 17.8328 61.8256 0.00190237 39.8271 0.00190237L39.8276 0ZM58.0922 57.4421C57.3788 58.6121 55.8474 58.983 54.6775 58.2649C45.3264 52.553 33.5545 51.2594 19.691 54.4268C18.355 54.7312 17.0234 53.8942 16.719 52.5578C16.4132 51.2213 17.2469 49.8897 18.5862 49.5853C33.7576 46.1192 46.7712 47.6116 57.2695 54.0273C58.4394 54.7455 58.8104 56.2721 58.0922 57.4421ZM62.9671 46.5976C62.0682 48.0587 60.1563 48.52 58.6962 47.6211C47.9906 41.0408 31.6716 39.1351 19.009 42.9788C17.3667 43.4749 15.6323 42.5494 15.1338 40.91C14.6392 39.2678 15.5652 37.5366 17.2046 37.0373C31.6688 32.6485 49.6505 34.7744 61.9445 42.3292C63.4046 43.2281 63.8659 45.1399 62.9671 46.5981V46.5976ZM63.3856 35.3052C50.5493 27.6809 29.3712 26.9799 17.1156 30.6995C15.1476 31.2964 13.0664 30.1854 12.47 28.2174C11.8736 26.2484 12.9837 24.1687 14.9531 23.5704C29.0216 19.2996 52.4089 20.1247 67.1875 28.898C68.9614 29.9486 69.5417 32.2347 68.4906 34.0025C67.4443 35.7727 65.1519 36.3562 63.3875 35.3052H63.3856ZM108.358 36.7662C101.481 35.1263 100.258 33.9754 100.258 31.557C100.258 29.2723 102.408 27.7347 105.609 27.7347C108.71 27.7347 111.782 28.9023 115.006 31.3059C115.102 31.3787 115.225 31.4077 115.344 31.3886C115.468 31.3706 115.572 31.3045 115.644 31.2051L119.001 26.472C119.139 26.277 119.101 26.0083 118.916 25.8594C115.078 22.7809 110.759 21.2842 105.709 21.2842C98.2846 21.2842 93.0959 25.74 93.0959 32.1154C93.0959 38.952 97.5712 41.3728 105.304 43.2414C111.882 44.7571 112.995 46.0269 112.995 48.2964C112.995 50.8123 110.75 52.377 107.135 52.377C103.121 52.377 99.8445 51.0216 96.1825 47.8541C96.0921 47.7733 95.9684 47.74 95.8543 47.7448C95.7306 47.7543 95.6213 47.8113 95.5452 47.9017L91.7785 52.3818C91.6215 52.572 91.6405 52.8479 91.8213 53.0096C96.0826 56.8143 101.324 58.8213 106.983 58.8213C114.983 58.8213 120.152 54.4506 120.152 47.6829C120.167 41.9725 116.747 38.8098 108.372 36.7724L108.358 36.7662ZM138.253 29.9842C134.786 29.9842 131.942 31.3501 129.593 34.149V30.9987C129.593 30.7499 129.393 30.5473 129.146 30.5473H122.987C122.74 30.5473 122.54 30.7499 122.54 30.9987V66.0028C122.54 66.2501 122.74 66.4546 122.987 66.4546H129.146C129.393 66.4546 129.593 66.2501 129.593 66.0028V54.9548C131.942 57.5848 134.786 58.8736 138.253 58.8736C144.698 58.8736 151.223 53.9132 151.223 44.4304C151.232 34.9456 144.707 29.9837 138.258 29.9837L138.253 29.9842ZM144.06 44.4304C144.06 49.2571 141.088 52.6291 136.827 52.6291C132.618 52.6291 129.441 49.105 129.441 44.4304C129.441 39.7553 132.618 36.2321 136.827 36.2321C141.017 36.2316 144.06 39.6787 144.06 44.4299V44.4304ZM167.94 29.9842C159.641 29.9842 153.139 36.3743 153.139 44.5336C153.139 52.6053 159.598 58.9259 167.84 58.9259C176.168 58.9259 182.688 52.5578 182.688 44.4304C182.688 36.3305 176.21 29.9852 167.94 29.9852V29.9842ZM167.94 52.6767C163.526 52.6767 160.197 49.1287 160.197 44.428C160.197 39.7058 163.412 36.2792 167.84 36.2792C172.282 36.2792 175.63 39.8257 175.63 44.5312C175.63 49.2524 172.396 52.6767 167.94 52.6767ZM200.409 30.5473H193.631V23.6198C193.631 23.3716 193.432 23.169 193.184 23.169H187.025C186.778 23.169 186.574 23.3716 186.574 23.6198V30.5473H183.615C183.368 30.5473 183.168 30.7499 183.168 30.9987V36.2906C183.168 36.5388 183.368 36.7419 183.615 36.7419H186.574V50.4366C186.574 55.9678 189.327 58.7738 194.763 58.7738C196.97 58.7738 198.801 58.3172 200.528 57.3375C200.67 57.2614 200.756 57.1092 200.756 56.9475V51.9062C200.756 51.754 200.675 51.6066 200.542 51.5257C200.409 51.4401 200.242 51.4354 200.104 51.5067C198.92 52.1012 197.774 52.377 196.49 52.377C194.516 52.377 193.631 51.4782 193.631 49.4712V36.7443H200.409C200.656 36.7443 200.856 36.5417 200.856 36.293V31.0015C200.865 30.7528 200.665 30.5502 200.413 30.5502L200.409 30.5473ZM224.017 30.5744V29.7236C224.017 27.2206 224.978 26.1043 227.127 26.1043C228.412 26.1043 229.444 26.3593 230.599 26.7445C230.742 26.7892 230.889 26.7668 231.004 26.6817C231.122 26.5966 231.189 26.4601 231.189 26.3155V21.1268C231.189 20.9285 231.065 20.753 230.87 20.6945C229.653 20.3316 228.093 19.9592 225.753 19.9592C220.07 19.9592 217.059 23.1618 217.059 29.2176V30.5207H214.101C213.854 30.5207 213.649 30.7233 213.649 30.9716V36.2906C213.649 36.5388 213.854 36.7419 214.101 36.7419H217.059V57.8606C217.059 58.1127 217.264 58.3124 217.511 58.3124H223.665C223.917 58.3124 224.117 58.1127 224.117 57.8606V36.7433H229.867L238.675 57.8606C237.676 60.0769 236.692 60.5192 235.35 60.5192C234.266 60.5192 233.12 60.1958 231.955 59.5537C231.845 59.4967 231.712 59.4871 231.598 59.5204C231.479 59.5632 231.379 59.6489 231.332 59.763L229.244 64.3429C229.144 64.5617 229.23 64.8138 229.439 64.9279C231.617 66.1074 233.581 66.6115 236.012 66.6115C240.558 66.6115 243.074 64.4904 245.286 58.7928L255.967 31.1908C256.024 31.0519 256.005 30.895 255.92 30.7718C255.839 30.6496 255.701 30.5759 255.554 30.5759H249.143C248.948 30.5759 248.776 30.6981 248.715 30.8783L242.147 49.6329L234.956 30.866C234.889 30.6914 234.723 30.5759 234.537 30.5759H224.017V30.5744ZM210.329 30.5473H204.171C203.923 30.5473 203.719 30.7499 203.719 30.9987V57.8606C203.719 58.1127 203.923 58.3124 204.171 58.3124H210.329C210.577 58.3124 210.781 58.1127 210.781 57.8606V31.0006C210.781 30.7518 210.582 30.5492 210.329 30.5492V30.5473ZM207.286 18.3156C204.846 18.3156 202.867 20.2902 202.867 22.7295C202.867 25.1703 204.846 27.1473 207.286 27.1473C209.725 27.1473 211.699 25.1703 211.699 22.7295C211.699 20.2907 209.721 18.3156 207.286 18.3156Z" fill="#7006AC"/>
</g>
<defs>
<clipPath id="clip0_1_863">
<rect width="256" height="80" fill="white"/>
</clipPath>
</defs>
</svg>
