<svg width="254" height="58" viewBox="0 0 254 58" fill="none" xmlns="http://www.w3.org/2000/svg">
<path d="M79.32 8.89522C78.3732 5.39646 75.6402 2.66337 72.1414 1.71662C65.8471 0 40.514 0 40.514 0C40.514 0 15.1808 0.0520188 8.88651 1.76864C5.38775 2.71539 2.65466 5.44848 1.70791 8.94724C-0.195977 20.1313 -0.934644 37.1727 1.75993 47.9093C2.70668 51.4081 5.43977 54.1412 8.93853 55.0879C15.2328 56.8046 40.566 56.8046 40.566 56.8046C40.566 56.8046 65.8991 56.8046 72.1934 55.0879C75.6922 54.1412 78.4253 51.4081 79.372 47.9093C81.3799 36.7097 81.999 19.6787 79.32 8.89522Z" fill="#7007AC"/>
<path d="M32.451 40.5747L53.4666 28.4023L32.451 16.2299V40.5747Z" fill="#9008DE"/>
<path d="M243.699 16.49C246.456 16.49 248.537 17.0102 249.994 17.9985C251.45 18.9869 252.491 20.5474 253.115 22.6802C253.739 24.813 253.999 27.726 253.999 31.4714V37.5576H240.63V39.4303L240.838 44.5801C240.995 45.7246 241.255 46.5569 241.671 47.077C242.087 47.5972 242.763 47.8573 243.647 47.8573C244.844 47.8573 245.676 47.3892 246.092 46.4528C246.561 45.5165 246.769 43.9559 246.821 41.8231L253.739 42.2393C253.791 42.5514 253.791 42.9676 253.791 43.4877C253.791 46.7649 252.907 49.2098 251.086 50.8224C249.266 52.435 246.769 53.2673 243.491 53.2673C239.538 53.2673 236.781 52.0188 235.22 49.574C233.66 47.1291 232.828 43.2797 232.828 38.1298V31.8355C233.004 22.9923 234.56 16.516 243.699 16.49ZM147.517 17.1662V43.2277C147.517 44.7882 147.673 45.9326 148.037 46.6089C148.776 48.055 150.69 47.6857 151.73 46.973C152.331 46.567 152.815 46.0111 153.135 45.3604V17.1662H161.094V52.6951H154.851L154.175 48.3255H154.019C152.302 51.6027 149.753 53.2673 146.372 53.2673C141.168 53.254 139.895 49.5049 139.592 45.6971L139.572 45.4282C139.532 44.8457 139.514 44.2639 139.506 43.6958V17.1662H147.517ZM188.56 17.1662V43.2277C188.56 44.7882 188.716 45.9326 189.08 46.6089C189.818 48.055 191.733 47.6857 192.773 46.973C193.374 46.567 193.858 46.0111 194.178 45.3604V17.1662H202.136V52.6951H195.894L195.218 48.3255H195.062C193.345 51.6027 190.796 53.2673 187.415 53.2673C182.211 53.254 180.938 49.5049 180.635 45.6971L180.615 45.4282C180.575 44.8457 180.557 44.2639 180.549 43.6958V17.1662H188.56ZM124.42 16.49C127.021 16.49 129.154 17.0102 130.715 18.1026C132.275 19.195 133.472 20.8596 134.2 23.1484C134.928 25.4372 135.292 28.5063 135.292 32.3037V37.4536C135.292 41.2509 134.928 44.268 134.2 46.5569C133.472 48.8457 132.327 50.5103 130.715 51.6027C129.102 52.6431 126.917 53.2153 124.212 53.2153C121.403 53.2673 119.218 52.6951 117.606 51.6547C115.993 50.5623 114.849 48.8977 114.173 46.6089C113.496 44.32 113.184 41.303 113.184 37.5056V32.3557C113.184 28.5583 113.548 25.4372 114.329 23.1484C115.109 20.8075 116.305 19.1429 117.97 18.1026C119.635 17.0622 121.767 16.49 124.42 16.49ZM214.621 2.23682V20.9636H214.673C215.401 19.6111 216.338 18.5187 217.638 17.6864C218.853 16.8695 220.284 16.4347 221.748 16.438C223.672 16.438 225.129 16.9581 226.221 17.9465C227.314 18.9869 228.094 20.5995 228.562 22.8363C229.016 25.0032 229.274 28 229.29 31.7795L229.29 32.1476V37.7657C229.29 43.0196 228.614 46.921 227.366 49.4179C226.065 51.9148 224.088 53.1633 221.383 53.1633C219.875 53.1633 218.522 52.7991 217.274 52.1229C216.169 51.4789 215.254 50.556 214.62 49.4482L214.517 49.2618H214.361L213.529 52.6431H206.922V2.23682H214.621ZM182.785 4.05748V10.5078H174.879V52.6951H167.076V10.5078H159.117V4.05748H182.785ZM97.0064 4.05748L97.0108 4.07706C97.087 4.41539 98.139 9.09112 99.2954 14.5384L99.3869 14.97C99.4328 15.1865 99.4787 15.4041 99.5248 15.6225L99.6169 16.0604C99.6323 16.1336 99.6477 16.2068 99.6631 16.2801L99.7554 16.7206C99.7707 16.7941 99.7861 16.8677 99.8015 16.9414L99.8937 17.3836L100.028 18.03C100.809 21.8021 101.554 25.5855 102 28.2982H102.208C102.636 25.8647 103.256 22.7506 103.918 19.5714L104.092 18.7409C104.179 18.3253 104.267 17.9096 104.354 17.495L104.491 16.8512C105.764 10.8617 107.031 5.2663 107.267 4.22887L107.282 4.16187C107.298 4.09311 107.306 4.05748 107.306 4.05748H115.265L106.058 36.8814V52.6431H98.2028V36.9334H98.1508L89.0475 4.05748H97.0064ZM124.264 22.004C123.172 22.004 122.444 22.5762 121.975 23.7726C121.507 24.969 121.299 26.7897 121.299 29.3386V40.4186C121.299 43.0196 121.507 44.9443 121.923 46.0887C122.34 47.2331 123.12 47.8053 124.264 47.8053C125.357 47.8053 126.137 47.2331 126.605 46.0887C127.073 44.9443 127.281 43.0196 127.281 40.4186V29.3386C127.281 26.7897 127.073 24.917 126.605 23.7726C126.137 22.5762 125.357 22.004 124.264 22.004ZM216.025 23.0443C215.391 23.6296 214.94 24.3519 214.672 25.2543L214.621 25.4372V45.6205C215.266 46.7129 216.182 47.4412 217.794 47.4932C218.626 47.4932 219.303 47.1811 219.823 46.5569C220.343 45.9326 220.707 44.8923 220.915 43.4357C221.115 42.0375 221.219 40.1118 221.227 37.6589L221.227 37.3495V32.7198C221.227 29.9108 221.123 27.7781 220.967 26.2695C220.759 24.761 220.499 23.6686 220.031 23.0443C219.126 21.7439 217.17 21.7595 216.025 23.0443ZM243.543 21.8479C242.659 21.8999 242.035 22.16 241.671 22.6282C241.255 23.1484 240.995 23.9287 240.838 25.0731C240.686 26.1946 240.632 30.1138 240.63 30.2702L240.63 32.8239H246.456L246.456 30.5717L246.456 30.6151C246.453 31.4024 246.437 30.158 246.401 28.6305L246.396 28.4253C246.363 27.0827 246.315 25.5858 246.248 25.0731C246.092 23.8766 245.832 23.0443 245.416 22.5762C245 22.108 244.376 21.8479 243.543 21.8479Z" fill="#7007AC"/>
</svg>
