<svg width="430" height="1010" viewBox="0 0 430 1010" fill="none" xmlns="http://www.w3.org/2000/svg">
<g clip-path="url(#clip0_275_5111)">
<rect width="430" height="1010" fill="#420466"/>
<path d="M393.622 615C393.622 699.997 373.487 776.929 340.953 832.598C308.413 888.277 263.516 922.622 214 922.622C164.484 922.622 119.587 888.277 87.0471 832.598C54.5129 776.929 34.378 699.997 34.378 615C34.378 530.003 54.5129 453.071 87.0471 397.402C119.587 341.723 164.484 307.378 214 307.378C263.516 307.378 308.413 341.723 340.953 397.402C373.487 453.071 393.622 530.003 393.622 615Z" stroke="#9008DE" stroke-width="0.756"/>
<path d="M342.622 614.5C342.622 671.19 328.644 722.494 306.065 759.614C283.482 796.741 252.335 819.622 218 819.622C183.665 819.622 152.518 796.741 129.935 759.614C107.356 722.494 93.378 671.19 93.378 614.5C93.378 557.81 107.356 506.506 129.935 469.386C152.518 432.259 183.665 409.378 218 409.378C252.335 409.378 283.482 432.259 306.065 469.386C328.644 506.506 342.622 557.81 342.622 614.5Z" stroke="#9008DE" stroke-width="0.756"/>
</g>
<defs>
<clipPath id="clip0_275_5111">
<rect width="430" height="1010" fill="white"/>
</clipPath>
</defs>
</svg>
